<mxfile host="app.diagrams.net" modified="2023-08-08T07:55:34.552Z" agent="Mozilla/5.0 (Windows NT 10.0; Win64; x64) AppleWebKit/537.36 (KHTML, like Gecko) Chrome/115.0.0.0 Safari/537.36" etag="gqYf8OciolVwRRRGg-Qn" version="21.6.6" type="device">
  <diagram name="Page-1" id="JPq5eyvh5_ZeivtrPbMD">
    <mxGraphModel dx="1975" dy="666" grid="0" gridSize="10" guides="1" tooltips="1" connect="1" arrows="1" fold="1" page="0" pageScale="1" pageWidth="827" pageHeight="1169" background="#ffffff" math="0" shadow="0">
      <root>
        <mxCell id="0" />
        <mxCell id="1" parent="0" />
        <mxCell id="yZxJTuz7baw03hSCPFo4-1" value="" style="shape=table;startSize=0;container=1;collapsible=0;childLayout=tableLayout;" parent="1" vertex="1">
          <mxGeometry x="-159" y="117" width="1405" height="43" as="geometry" />
        </mxCell>
        <mxCell id="yZxJTuz7baw03hSCPFo4-2" value="" style="shape=tableRow;horizontal=0;startSize=0;swimlaneHead=0;swimlaneBody=0;strokeColor=inherit;top=0;left=0;bottom=0;right=0;collapsible=0;dropTarget=0;fillColor=none;points=[[0,0.5],[1,0.5]];portConstraint=eastwest;" parent="yZxJTuz7baw03hSCPFo4-1" vertex="1">
          <mxGeometry width="1405" height="43" as="geometry" />
        </mxCell>
        <mxCell id="yZxJTuz7baw03hSCPFo4-3" value="&lt;font face=&quot;Times New Roman&quot; style=&quot;font-size: 18px;&quot;&gt;Activities&lt;/font&gt;" style="shape=partialRectangle;html=1;whiteSpace=wrap;connectable=0;strokeColor=inherit;overflow=hidden;fillColor=none;top=0;left=0;bottom=0;right=0;pointerEvents=1;" parent="yZxJTuz7baw03hSCPFo4-2" vertex="1">
          <mxGeometry width="127" height="43" as="geometry">
            <mxRectangle width="127" height="43" as="alternateBounds" />
          </mxGeometry>
        </mxCell>
        <mxCell id="yZxJTuz7baw03hSCPFo4-4" value="&lt;font face=&quot;Times New Roman&quot; style=&quot;font-size: 14px;&quot;&gt;Week 1&lt;/font&gt;" style="shape=partialRectangle;html=1;whiteSpace=wrap;connectable=0;strokeColor=inherit;overflow=hidden;fillColor=none;top=0;left=0;bottom=0;right=0;pointerEvents=1;" parent="yZxJTuz7baw03hSCPFo4-2" vertex="1">
          <mxGeometry x="127" width="76" height="43" as="geometry">
            <mxRectangle width="76" height="43" as="alternateBounds" />
          </mxGeometry>
        </mxCell>
        <mxCell id="yZxJTuz7baw03hSCPFo4-5" value="&lt;font face=&quot;Times New Roman&quot; style=&quot;font-size: 14px;&quot;&gt;Week 2&lt;/font&gt;" style="shape=partialRectangle;html=1;whiteSpace=wrap;connectable=0;strokeColor=inherit;overflow=hidden;fillColor=none;top=0;left=0;bottom=0;right=0;pointerEvents=1;" parent="yZxJTuz7baw03hSCPFo4-2" vertex="1">
          <mxGeometry x="203" width="85" height="43" as="geometry">
            <mxRectangle width="85" height="43" as="alternateBounds" />
          </mxGeometry>
        </mxCell>
        <mxCell id="yZxJTuz7baw03hSCPFo4-6" value="&lt;font face=&quot;Times New Roman&quot; style=&quot;font-size: 14px;&quot;&gt;Week 3&lt;/font&gt;" style="shape=partialRectangle;html=1;whiteSpace=wrap;connectable=0;strokeColor=inherit;overflow=hidden;fillColor=none;top=0;left=0;bottom=0;right=0;pointerEvents=1;" parent="yZxJTuz7baw03hSCPFo4-2" vertex="1">
          <mxGeometry x="288" width="85" height="43" as="geometry">
            <mxRectangle width="85" height="43" as="alternateBounds" />
          </mxGeometry>
        </mxCell>
        <mxCell id="yZxJTuz7baw03hSCPFo4-7" value="&lt;font face=&quot;Times New Roman&quot; style=&quot;font-size: 14px;&quot;&gt;Week 4&lt;/font&gt;" style="shape=partialRectangle;html=1;whiteSpace=wrap;connectable=0;strokeColor=inherit;overflow=hidden;fillColor=none;top=0;left=0;bottom=0;right=0;pointerEvents=1;" parent="yZxJTuz7baw03hSCPFo4-2" vertex="1">
          <mxGeometry x="373" width="86" height="43" as="geometry">
            <mxRectangle width="86" height="43" as="alternateBounds" />
          </mxGeometry>
        </mxCell>
        <mxCell id="yZxJTuz7baw03hSCPFo4-8" value="&lt;font face=&quot;Times New Roman&quot; style=&quot;font-size: 14px;&quot;&gt;Week 5&lt;/font&gt;" style="shape=partialRectangle;html=1;whiteSpace=wrap;connectable=0;strokeColor=inherit;overflow=hidden;fillColor=none;top=0;left=0;bottom=0;right=0;pointerEvents=1;" parent="yZxJTuz7baw03hSCPFo4-2" vertex="1">
          <mxGeometry x="459" width="85" height="43" as="geometry">
            <mxRectangle width="85" height="43" as="alternateBounds" />
          </mxGeometry>
        </mxCell>
        <mxCell id="yZxJTuz7baw03hSCPFo4-9" value="&lt;font face=&quot;Times New Roman&quot; style=&quot;font-size: 14px;&quot;&gt;Week 6&lt;/font&gt;" style="shape=partialRectangle;html=1;whiteSpace=wrap;connectable=0;strokeColor=inherit;overflow=hidden;fillColor=none;top=0;left=0;bottom=0;right=0;pointerEvents=1;" parent="yZxJTuz7baw03hSCPFo4-2" vertex="1">
          <mxGeometry x="544" width="85" height="43" as="geometry">
            <mxRectangle width="85" height="43" as="alternateBounds" />
          </mxGeometry>
        </mxCell>
        <mxCell id="yZxJTuz7baw03hSCPFo4-10" value="&lt;font face=&quot;Times New Roman&quot; style=&quot;font-size: 14px;&quot;&gt;Week 7&lt;/font&gt;" style="shape=partialRectangle;html=1;whiteSpace=wrap;connectable=0;strokeColor=inherit;overflow=hidden;fillColor=none;top=0;left=0;bottom=0;right=0;pointerEvents=1;" parent="yZxJTuz7baw03hSCPFo4-2" vertex="1">
          <mxGeometry x="629" width="82" height="43" as="geometry">
            <mxRectangle width="82" height="43" as="alternateBounds" />
          </mxGeometry>
        </mxCell>
        <mxCell id="yZxJTuz7baw03hSCPFo4-11" value="&lt;font face=&quot;Times New Roman&quot; style=&quot;font-size: 14px;&quot;&gt;Week 8&lt;/font&gt;" style="shape=partialRectangle;html=1;whiteSpace=wrap;connectable=0;strokeColor=inherit;overflow=hidden;fillColor=none;top=0;left=0;bottom=0;right=0;pointerEvents=1;" parent="yZxJTuz7baw03hSCPFo4-2" vertex="1">
          <mxGeometry x="711" width="89" height="43" as="geometry">
            <mxRectangle width="89" height="43" as="alternateBounds" />
          </mxGeometry>
        </mxCell>
        <mxCell id="yZxJTuz7baw03hSCPFo4-12" value="&lt;font face=&quot;Times New Roman&quot; style=&quot;font-size: 14px;&quot;&gt;Week 9&lt;/font&gt;" style="shape=partialRectangle;html=1;whiteSpace=wrap;connectable=0;strokeColor=inherit;overflow=hidden;fillColor=none;top=0;left=0;bottom=0;right=0;pointerEvents=1;" parent="yZxJTuz7baw03hSCPFo4-2" vertex="1">
          <mxGeometry x="800" width="85" height="43" as="geometry">
            <mxRectangle width="85" height="43" as="alternateBounds" />
          </mxGeometry>
        </mxCell>
        <mxCell id="yZxJTuz7baw03hSCPFo4-13" value="&lt;font face=&quot;Times New Roman&quot; style=&quot;font-size: 14px;&quot;&gt;Week 10&lt;/font&gt;" style="shape=partialRectangle;html=1;whiteSpace=wrap;connectable=0;strokeColor=inherit;overflow=hidden;fillColor=none;top=0;left=0;bottom=0;right=0;pointerEvents=1;" parent="yZxJTuz7baw03hSCPFo4-2" vertex="1">
          <mxGeometry x="885" width="85" height="43" as="geometry">
            <mxRectangle width="85" height="43" as="alternateBounds" />
          </mxGeometry>
        </mxCell>
        <mxCell id="yZxJTuz7baw03hSCPFo4-14" value="&lt;font face=&quot;Times New Roman&quot; style=&quot;font-size: 14px;&quot;&gt;Week 11&lt;/font&gt;" style="shape=partialRectangle;html=1;whiteSpace=wrap;connectable=0;strokeColor=inherit;overflow=hidden;fillColor=none;top=0;left=0;bottom=0;right=0;pointerEvents=1;" parent="yZxJTuz7baw03hSCPFo4-2" vertex="1">
          <mxGeometry x="970" width="86" height="43" as="geometry">
            <mxRectangle width="86" height="43" as="alternateBounds" />
          </mxGeometry>
        </mxCell>
        <mxCell id="yZxJTuz7baw03hSCPFo4-15" value="&lt;font face=&quot;Times New Roman&quot; style=&quot;font-size: 14px;&quot;&gt;Week 12&lt;/font&gt;" style="shape=partialRectangle;html=1;whiteSpace=wrap;connectable=0;strokeColor=inherit;overflow=hidden;fillColor=none;top=0;left=0;bottom=0;right=0;pointerEvents=1;" parent="yZxJTuz7baw03hSCPFo4-2" vertex="1">
          <mxGeometry x="1056" width="85" height="43" as="geometry">
            <mxRectangle width="85" height="43" as="alternateBounds" />
          </mxGeometry>
        </mxCell>
        <mxCell id="yZxJTuz7baw03hSCPFo4-16" value="&lt;font face=&quot;Times New Roman&quot; style=&quot;font-size: 14px;&quot;&gt;Week 13&lt;/font&gt;" style="shape=partialRectangle;html=1;whiteSpace=wrap;connectable=0;strokeColor=inherit;overflow=hidden;fillColor=none;top=0;left=0;bottom=0;right=0;pointerEvents=1;" parent="yZxJTuz7baw03hSCPFo4-2" vertex="1">
          <mxGeometry x="1141" width="85" height="43" as="geometry">
            <mxRectangle width="85" height="43" as="alternateBounds" />
          </mxGeometry>
        </mxCell>
        <mxCell id="yZxJTuz7baw03hSCPFo4-17" value="&lt;font face=&quot;Times New Roman&quot; style=&quot;font-size: 14px;&quot;&gt;Week 14&lt;/font&gt;" style="shape=partialRectangle;html=1;whiteSpace=wrap;connectable=0;strokeColor=inherit;overflow=hidden;fillColor=none;top=0;left=0;bottom=0;right=0;pointerEvents=1;" parent="yZxJTuz7baw03hSCPFo4-2" vertex="1">
          <mxGeometry x="1226" width="99" height="43" as="geometry">
            <mxRectangle width="99" height="43" as="alternateBounds" />
          </mxGeometry>
        </mxCell>
        <mxCell id="yZxJTuz7baw03hSCPFo4-18" value="&lt;font face=&quot;Times New Roman&quot; style=&quot;font-size: 14px;&quot;&gt;Week 15&lt;/font&gt;" style="shape=partialRectangle;html=1;whiteSpace=wrap;connectable=0;strokeColor=inherit;overflow=hidden;fillColor=none;top=0;left=0;bottom=0;right=0;pointerEvents=1;" parent="yZxJTuz7baw03hSCPFo4-2" vertex="1">
          <mxGeometry x="1325" width="80" height="43" as="geometry">
            <mxRectangle width="80" height="43" as="alternateBounds" />
          </mxGeometry>
        </mxCell>
        <mxCell id="yZxJTuz7baw03hSCPFo4-36" value="" style="shape=table;startSize=0;container=1;collapsible=0;childLayout=tableLayout;" parent="1" vertex="1">
          <mxGeometry x="-159" y="196" width="1405" height="43" as="geometry" />
        </mxCell>
        <mxCell id="yZxJTuz7baw03hSCPFo4-37" value="" style="shape=tableRow;horizontal=0;startSize=0;swimlaneHead=0;swimlaneBody=0;strokeColor=inherit;top=0;left=0;bottom=0;right=0;collapsible=0;dropTarget=0;fillColor=none;points=[[0,0.5],[1,0.5]];portConstraint=eastwest;" parent="yZxJTuz7baw03hSCPFo4-36" vertex="1">
          <mxGeometry width="1405" height="43" as="geometry" />
        </mxCell>
        <mxCell id="yZxJTuz7baw03hSCPFo4-38" value="&lt;font face=&quot;Times New Roman&quot; style=&quot;font-size: 18px;&quot;&gt;Planning&lt;/font&gt;" style="shape=partialRectangle;html=1;whiteSpace=wrap;connectable=0;strokeColor=inherit;overflow=hidden;fillColor=none;top=0;left=0;bottom=0;right=0;pointerEvents=1;" parent="yZxJTuz7baw03hSCPFo4-37" vertex="1">
          <mxGeometry width="127" height="43" as="geometry">
            <mxRectangle width="127" height="43" as="alternateBounds" />
          </mxGeometry>
        </mxCell>
        <mxCell id="yZxJTuz7baw03hSCPFo4-39" value="" style="shape=partialRectangle;html=1;whiteSpace=wrap;connectable=0;strokeColor=#23445d;overflow=hidden;fillColor=#bac8d3;top=0;left=0;bottom=0;right=0;pointerEvents=1;" parent="yZxJTuz7baw03hSCPFo4-37" vertex="1">
          <mxGeometry x="127" width="76" height="43" as="geometry">
            <mxRectangle width="76" height="43" as="alternateBounds" />
          </mxGeometry>
        </mxCell>
        <mxCell id="yZxJTuz7baw03hSCPFo4-40" value="" style="shape=partialRectangle;html=1;whiteSpace=wrap;connectable=0;strokeColor=#23445d;overflow=hidden;fillColor=#bac8d3;top=0;left=0;bottom=0;right=0;pointerEvents=1;" parent="yZxJTuz7baw03hSCPFo4-37" vertex="1">
          <mxGeometry x="203" width="85" height="43" as="geometry">
            <mxRectangle width="85" height="43" as="alternateBounds" />
          </mxGeometry>
        </mxCell>
        <mxCell id="yZxJTuz7baw03hSCPFo4-41" value="" style="shape=partialRectangle;html=1;whiteSpace=wrap;connectable=0;strokeColor=#23445d;overflow=hidden;fillColor=#bac8d3;top=0;left=0;bottom=0;right=0;pointerEvents=1;" parent="yZxJTuz7baw03hSCPFo4-37" vertex="1">
          <mxGeometry x="288" width="85" height="43" as="geometry">
            <mxRectangle width="85" height="43" as="alternateBounds" />
          </mxGeometry>
        </mxCell>
        <mxCell id="yZxJTuz7baw03hSCPFo4-42" value="" style="shape=partialRectangle;html=1;whiteSpace=wrap;connectable=0;strokeColor=inherit;overflow=hidden;fillColor=none;top=0;left=0;bottom=0;right=0;pointerEvents=1;" parent="yZxJTuz7baw03hSCPFo4-37" vertex="1">
          <mxGeometry x="373" width="86" height="43" as="geometry">
            <mxRectangle width="86" height="43" as="alternateBounds" />
          </mxGeometry>
        </mxCell>
        <mxCell id="yZxJTuz7baw03hSCPFo4-43" value="" style="shape=partialRectangle;html=1;whiteSpace=wrap;connectable=0;strokeColor=inherit;overflow=hidden;fillColor=none;top=0;left=0;bottom=0;right=0;pointerEvents=1;" parent="yZxJTuz7baw03hSCPFo4-37" vertex="1">
          <mxGeometry x="459" width="85" height="43" as="geometry">
            <mxRectangle width="85" height="43" as="alternateBounds" />
          </mxGeometry>
        </mxCell>
        <mxCell id="yZxJTuz7baw03hSCPFo4-44" value="" style="shape=partialRectangle;html=1;whiteSpace=wrap;connectable=0;strokeColor=inherit;overflow=hidden;fillColor=none;top=0;left=0;bottom=0;right=0;pointerEvents=1;" parent="yZxJTuz7baw03hSCPFo4-37" vertex="1">
          <mxGeometry x="544" width="85" height="43" as="geometry">
            <mxRectangle width="85" height="43" as="alternateBounds" />
          </mxGeometry>
        </mxCell>
        <mxCell id="yZxJTuz7baw03hSCPFo4-45" value="" style="shape=partialRectangle;html=1;whiteSpace=wrap;connectable=0;strokeColor=inherit;overflow=hidden;fillColor=none;top=0;left=0;bottom=0;right=0;pointerEvents=1;" parent="yZxJTuz7baw03hSCPFo4-37" vertex="1">
          <mxGeometry x="629" width="82" height="43" as="geometry">
            <mxRectangle width="82" height="43" as="alternateBounds" />
          </mxGeometry>
        </mxCell>
        <mxCell id="yZxJTuz7baw03hSCPFo4-46" value="" style="shape=partialRectangle;html=1;whiteSpace=wrap;connectable=0;strokeColor=inherit;overflow=hidden;fillColor=none;top=0;left=0;bottom=0;right=0;pointerEvents=1;" parent="yZxJTuz7baw03hSCPFo4-37" vertex="1">
          <mxGeometry x="711" width="89" height="43" as="geometry">
            <mxRectangle width="89" height="43" as="alternateBounds" />
          </mxGeometry>
        </mxCell>
        <mxCell id="yZxJTuz7baw03hSCPFo4-47" value="" style="shape=partialRectangle;html=1;whiteSpace=wrap;connectable=0;strokeColor=inherit;overflow=hidden;fillColor=none;top=0;left=0;bottom=0;right=0;pointerEvents=1;" parent="yZxJTuz7baw03hSCPFo4-37" vertex="1">
          <mxGeometry x="800" width="85" height="43" as="geometry">
            <mxRectangle width="85" height="43" as="alternateBounds" />
          </mxGeometry>
        </mxCell>
        <mxCell id="yZxJTuz7baw03hSCPFo4-48" value="" style="shape=partialRectangle;html=1;whiteSpace=wrap;connectable=0;strokeColor=inherit;overflow=hidden;fillColor=none;top=0;left=0;bottom=0;right=0;pointerEvents=1;" parent="yZxJTuz7baw03hSCPFo4-37" vertex="1">
          <mxGeometry x="885" width="85" height="43" as="geometry">
            <mxRectangle width="85" height="43" as="alternateBounds" />
          </mxGeometry>
        </mxCell>
        <mxCell id="yZxJTuz7baw03hSCPFo4-49" value="" style="shape=partialRectangle;html=1;whiteSpace=wrap;connectable=0;strokeColor=inherit;overflow=hidden;fillColor=none;top=0;left=0;bottom=0;right=0;pointerEvents=1;" parent="yZxJTuz7baw03hSCPFo4-37" vertex="1">
          <mxGeometry x="970" width="86" height="43" as="geometry">
            <mxRectangle width="86" height="43" as="alternateBounds" />
          </mxGeometry>
        </mxCell>
        <mxCell id="yZxJTuz7baw03hSCPFo4-50" value="" style="shape=partialRectangle;html=1;whiteSpace=wrap;connectable=0;strokeColor=inherit;overflow=hidden;fillColor=none;top=0;left=0;bottom=0;right=0;pointerEvents=1;" parent="yZxJTuz7baw03hSCPFo4-37" vertex="1">
          <mxGeometry x="1056" width="85" height="43" as="geometry">
            <mxRectangle width="85" height="43" as="alternateBounds" />
          </mxGeometry>
        </mxCell>
        <mxCell id="yZxJTuz7baw03hSCPFo4-51" value="" style="shape=partialRectangle;html=1;whiteSpace=wrap;connectable=0;strokeColor=inherit;overflow=hidden;fillColor=none;top=0;left=0;bottom=0;right=0;pointerEvents=1;" parent="yZxJTuz7baw03hSCPFo4-37" vertex="1">
          <mxGeometry x="1141" width="85" height="43" as="geometry">
            <mxRectangle width="85" height="43" as="alternateBounds" />
          </mxGeometry>
        </mxCell>
        <mxCell id="yZxJTuz7baw03hSCPFo4-52" value="" style="shape=partialRectangle;html=1;whiteSpace=wrap;connectable=0;strokeColor=inherit;overflow=hidden;fillColor=none;top=0;left=0;bottom=0;right=0;pointerEvents=1;" parent="yZxJTuz7baw03hSCPFo4-37" vertex="1">
          <mxGeometry x="1226" width="99" height="43" as="geometry">
            <mxRectangle width="99" height="43" as="alternateBounds" />
          </mxGeometry>
        </mxCell>
        <mxCell id="yZxJTuz7baw03hSCPFo4-53" value="" style="shape=partialRectangle;html=1;whiteSpace=wrap;connectable=0;strokeColor=inherit;overflow=hidden;fillColor=none;top=0;left=0;bottom=0;right=0;pointerEvents=1;" parent="yZxJTuz7baw03hSCPFo4-37" vertex="1">
          <mxGeometry x="1325" width="80" height="43" as="geometry">
            <mxRectangle width="80" height="43" as="alternateBounds" />
          </mxGeometry>
        </mxCell>
        <mxCell id="yZxJTuz7baw03hSCPFo4-55" value="" style="shape=table;startSize=0;container=1;collapsible=0;childLayout=tableLayout;" parent="1" vertex="1">
          <mxGeometry x="-159" y="277" width="1405" height="43" as="geometry" />
        </mxCell>
        <mxCell id="yZxJTuz7baw03hSCPFo4-56" value="" style="shape=tableRow;horizontal=0;startSize=0;swimlaneHead=0;swimlaneBody=0;strokeColor=inherit;top=0;left=0;bottom=0;right=0;collapsible=0;dropTarget=0;fillColor=none;points=[[0,0.5],[1,0.5]];portConstraint=eastwest;" parent="yZxJTuz7baw03hSCPFo4-55" vertex="1">
          <mxGeometry width="1405" height="43" as="geometry" />
        </mxCell>
        <mxCell id="yZxJTuz7baw03hSCPFo4-57" value="&lt;font face=&quot;Times New Roman&quot; style=&quot;font-size: 18px;&quot;&gt;Analysis&lt;/font&gt;" style="shape=partialRectangle;html=1;whiteSpace=wrap;connectable=0;strokeColor=inherit;overflow=hidden;fillColor=none;top=0;left=0;bottom=0;right=0;pointerEvents=1;" parent="yZxJTuz7baw03hSCPFo4-56" vertex="1">
          <mxGeometry width="127" height="43" as="geometry">
            <mxRectangle width="127" height="43" as="alternateBounds" />
          </mxGeometry>
        </mxCell>
        <mxCell id="yZxJTuz7baw03hSCPFo4-58" value="" style="shape=partialRectangle;html=1;whiteSpace=wrap;connectable=0;strokeColor=inherit;overflow=hidden;fillColor=none;top=0;left=0;bottom=0;right=0;pointerEvents=1;" parent="yZxJTuz7baw03hSCPFo4-56" vertex="1">
          <mxGeometry x="127" width="76" height="43" as="geometry">
            <mxRectangle width="76" height="43" as="alternateBounds" />
          </mxGeometry>
        </mxCell>
        <mxCell id="yZxJTuz7baw03hSCPFo4-59" value="" style="shape=partialRectangle;html=1;whiteSpace=wrap;connectable=0;strokeColor=inherit;overflow=hidden;fillColor=none;top=0;left=0;bottom=0;right=0;pointerEvents=1;" parent="yZxJTuz7baw03hSCPFo4-56" vertex="1">
          <mxGeometry x="203" width="85" height="43" as="geometry">
            <mxRectangle width="85" height="43" as="alternateBounds" />
          </mxGeometry>
        </mxCell>
        <mxCell id="yZxJTuz7baw03hSCPFo4-60" value="" style="shape=partialRectangle;html=1;whiteSpace=wrap;connectable=0;strokeColor=#6F0000;overflow=hidden;fillColor=#a20025;top=0;left=0;bottom=0;right=0;pointerEvents=1;fontColor=#ffffff;" parent="yZxJTuz7baw03hSCPFo4-56" vertex="1">
          <mxGeometry x="288" width="85" height="43" as="geometry">
            <mxRectangle width="85" height="43" as="alternateBounds" />
          </mxGeometry>
        </mxCell>
        <mxCell id="yZxJTuz7baw03hSCPFo4-61" value="" style="shape=partialRectangle;html=1;whiteSpace=wrap;connectable=0;strokeColor=#6F0000;overflow=hidden;fillColor=#a20025;top=0;left=0;bottom=0;right=0;pointerEvents=1;fontColor=#ffffff;" parent="yZxJTuz7baw03hSCPFo4-56" vertex="1">
          <mxGeometry x="373" width="86" height="43" as="geometry">
            <mxRectangle width="86" height="43" as="alternateBounds" />
          </mxGeometry>
        </mxCell>
        <mxCell id="yZxJTuz7baw03hSCPFo4-62" value="" style="shape=partialRectangle;html=1;whiteSpace=wrap;connectable=0;strokeColor=#6F0000;overflow=hidden;fillColor=#a20025;top=0;left=0;bottom=0;right=0;pointerEvents=1;fontColor=#ffffff;" parent="yZxJTuz7baw03hSCPFo4-56" vertex="1">
          <mxGeometry x="459" width="85" height="43" as="geometry">
            <mxRectangle width="85" height="43" as="alternateBounds" />
          </mxGeometry>
        </mxCell>
        <mxCell id="yZxJTuz7baw03hSCPFo4-63" value="" style="shape=partialRectangle;html=1;whiteSpace=wrap;connectable=0;strokeColor=inherit;overflow=hidden;fillColor=none;top=0;left=0;bottom=0;right=0;pointerEvents=1;" parent="yZxJTuz7baw03hSCPFo4-56" vertex="1">
          <mxGeometry x="544" width="85" height="43" as="geometry">
            <mxRectangle width="85" height="43" as="alternateBounds" />
          </mxGeometry>
        </mxCell>
        <mxCell id="yZxJTuz7baw03hSCPFo4-64" value="" style="shape=partialRectangle;html=1;whiteSpace=wrap;connectable=0;strokeColor=inherit;overflow=hidden;fillColor=none;top=0;left=0;bottom=0;right=0;pointerEvents=1;" parent="yZxJTuz7baw03hSCPFo4-56" vertex="1">
          <mxGeometry x="629" width="82" height="43" as="geometry">
            <mxRectangle width="82" height="43" as="alternateBounds" />
          </mxGeometry>
        </mxCell>
        <mxCell id="yZxJTuz7baw03hSCPFo4-65" value="" style="shape=partialRectangle;html=1;whiteSpace=wrap;connectable=0;strokeColor=inherit;overflow=hidden;fillColor=none;top=0;left=0;bottom=0;right=0;pointerEvents=1;" parent="yZxJTuz7baw03hSCPFo4-56" vertex="1">
          <mxGeometry x="711" width="89" height="43" as="geometry">
            <mxRectangle width="89" height="43" as="alternateBounds" />
          </mxGeometry>
        </mxCell>
        <mxCell id="yZxJTuz7baw03hSCPFo4-66" value="" style="shape=partialRectangle;html=1;whiteSpace=wrap;connectable=0;strokeColor=inherit;overflow=hidden;fillColor=none;top=0;left=0;bottom=0;right=0;pointerEvents=1;" parent="yZxJTuz7baw03hSCPFo4-56" vertex="1">
          <mxGeometry x="800" width="85" height="43" as="geometry">
            <mxRectangle width="85" height="43" as="alternateBounds" />
          </mxGeometry>
        </mxCell>
        <mxCell id="yZxJTuz7baw03hSCPFo4-67" value="" style="shape=partialRectangle;html=1;whiteSpace=wrap;connectable=0;strokeColor=inherit;overflow=hidden;fillColor=none;top=0;left=0;bottom=0;right=0;pointerEvents=1;" parent="yZxJTuz7baw03hSCPFo4-56" vertex="1">
          <mxGeometry x="885" width="85" height="43" as="geometry">
            <mxRectangle width="85" height="43" as="alternateBounds" />
          </mxGeometry>
        </mxCell>
        <mxCell id="yZxJTuz7baw03hSCPFo4-68" value="" style="shape=partialRectangle;html=1;whiteSpace=wrap;connectable=0;strokeColor=inherit;overflow=hidden;fillColor=none;top=0;left=0;bottom=0;right=0;pointerEvents=1;" parent="yZxJTuz7baw03hSCPFo4-56" vertex="1">
          <mxGeometry x="970" width="86" height="43" as="geometry">
            <mxRectangle width="86" height="43" as="alternateBounds" />
          </mxGeometry>
        </mxCell>
        <mxCell id="yZxJTuz7baw03hSCPFo4-69" value="" style="shape=partialRectangle;html=1;whiteSpace=wrap;connectable=0;strokeColor=inherit;overflow=hidden;fillColor=none;top=0;left=0;bottom=0;right=0;pointerEvents=1;" parent="yZxJTuz7baw03hSCPFo4-56" vertex="1">
          <mxGeometry x="1056" width="85" height="43" as="geometry">
            <mxRectangle width="85" height="43" as="alternateBounds" />
          </mxGeometry>
        </mxCell>
        <mxCell id="yZxJTuz7baw03hSCPFo4-70" value="" style="shape=partialRectangle;html=1;whiteSpace=wrap;connectable=0;strokeColor=inherit;overflow=hidden;fillColor=none;top=0;left=0;bottom=0;right=0;pointerEvents=1;" parent="yZxJTuz7baw03hSCPFo4-56" vertex="1">
          <mxGeometry x="1141" width="85" height="43" as="geometry">
            <mxRectangle width="85" height="43" as="alternateBounds" />
          </mxGeometry>
        </mxCell>
        <mxCell id="yZxJTuz7baw03hSCPFo4-71" value="" style="shape=partialRectangle;html=1;whiteSpace=wrap;connectable=0;strokeColor=inherit;overflow=hidden;fillColor=none;top=0;left=0;bottom=0;right=0;pointerEvents=1;" parent="yZxJTuz7baw03hSCPFo4-56" vertex="1">
          <mxGeometry x="1226" width="99" height="43" as="geometry">
            <mxRectangle width="99" height="43" as="alternateBounds" />
          </mxGeometry>
        </mxCell>
        <mxCell id="yZxJTuz7baw03hSCPFo4-72" value="" style="shape=partialRectangle;html=1;whiteSpace=wrap;connectable=0;strokeColor=inherit;overflow=hidden;fillColor=none;top=0;left=0;bottom=0;right=0;pointerEvents=1;" parent="yZxJTuz7baw03hSCPFo4-56" vertex="1">
          <mxGeometry x="1325" width="80" height="43" as="geometry">
            <mxRectangle width="80" height="43" as="alternateBounds" />
          </mxGeometry>
        </mxCell>
        <mxCell id="yZxJTuz7baw03hSCPFo4-73" value="" style="shape=table;startSize=0;container=1;collapsible=0;childLayout=tableLayout;" parent="1" vertex="1">
          <mxGeometry x="-159" y="358" width="1405" height="43" as="geometry" />
        </mxCell>
        <mxCell id="yZxJTuz7baw03hSCPFo4-74" value="" style="shape=tableRow;horizontal=0;startSize=0;swimlaneHead=0;swimlaneBody=0;strokeColor=inherit;top=0;left=0;bottom=0;right=0;collapsible=0;dropTarget=0;fillColor=none;points=[[0,0.5],[1,0.5]];portConstraint=eastwest;" parent="yZxJTuz7baw03hSCPFo4-73" vertex="1">
          <mxGeometry width="1405" height="43" as="geometry" />
        </mxCell>
        <mxCell id="yZxJTuz7baw03hSCPFo4-75" value="&lt;font face=&quot;Times New Roman&quot; style=&quot;font-size: 18px;&quot;&gt;Design&lt;/font&gt;" style="shape=partialRectangle;html=1;whiteSpace=wrap;connectable=0;strokeColor=inherit;overflow=hidden;fillColor=none;top=0;left=0;bottom=0;right=0;pointerEvents=1;" parent="yZxJTuz7baw03hSCPFo4-74" vertex="1">
          <mxGeometry width="127" height="43" as="geometry">
            <mxRectangle width="127" height="43" as="alternateBounds" />
          </mxGeometry>
        </mxCell>
        <mxCell id="yZxJTuz7baw03hSCPFo4-76" value="" style="shape=partialRectangle;html=1;whiteSpace=wrap;connectable=0;strokeColor=inherit;overflow=hidden;fillColor=none;top=0;left=0;bottom=0;right=0;pointerEvents=1;" parent="yZxJTuz7baw03hSCPFo4-74" vertex="1">
          <mxGeometry x="127" width="76" height="43" as="geometry">
            <mxRectangle width="76" height="43" as="alternateBounds" />
          </mxGeometry>
        </mxCell>
        <mxCell id="yZxJTuz7baw03hSCPFo4-77" value="" style="shape=partialRectangle;html=1;whiteSpace=wrap;connectable=0;strokeColor=inherit;overflow=hidden;fillColor=none;top=0;left=0;bottom=0;right=0;pointerEvents=1;" parent="yZxJTuz7baw03hSCPFo4-74" vertex="1">
          <mxGeometry x="203" width="85" height="43" as="geometry">
            <mxRectangle width="85" height="43" as="alternateBounds" />
          </mxGeometry>
        </mxCell>
        <mxCell id="yZxJTuz7baw03hSCPFo4-78" value="" style="shape=partialRectangle;html=1;whiteSpace=wrap;connectable=0;strokeColor=inherit;overflow=hidden;fillColor=none;top=0;left=0;bottom=0;right=0;pointerEvents=1;" parent="yZxJTuz7baw03hSCPFo4-74" vertex="1">
          <mxGeometry x="288" width="85" height="43" as="geometry">
            <mxRectangle width="85" height="43" as="alternateBounds" />
          </mxGeometry>
        </mxCell>
        <mxCell id="yZxJTuz7baw03hSCPFo4-79" value="" style="shape=partialRectangle;html=1;whiteSpace=wrap;connectable=0;strokeColor=inherit;overflow=hidden;fillColor=none;top=0;left=0;bottom=0;right=0;pointerEvents=1;" parent="yZxJTuz7baw03hSCPFo4-74" vertex="1">
          <mxGeometry x="373" width="86" height="43" as="geometry">
            <mxRectangle width="86" height="43" as="alternateBounds" />
          </mxGeometry>
        </mxCell>
        <mxCell id="yZxJTuz7baw03hSCPFo4-80" value="" style="shape=partialRectangle;html=1;whiteSpace=wrap;connectable=0;strokeColor=#001DBC;overflow=hidden;fillColor=#0050ef;top=0;left=0;bottom=0;right=0;pointerEvents=1;fontColor=#ffffff;" parent="yZxJTuz7baw03hSCPFo4-74" vertex="1">
          <mxGeometry x="459" width="85" height="43" as="geometry">
            <mxRectangle width="85" height="43" as="alternateBounds" />
          </mxGeometry>
        </mxCell>
        <mxCell id="yZxJTuz7baw03hSCPFo4-81" value="" style="shape=partialRectangle;html=1;whiteSpace=wrap;connectable=0;strokeColor=#001DBC;overflow=hidden;fillColor=#0050ef;top=0;left=0;bottom=0;right=0;pointerEvents=1;fontColor=#ffffff;" parent="yZxJTuz7baw03hSCPFo4-74" vertex="1">
          <mxGeometry x="544" width="85" height="43" as="geometry">
            <mxRectangle width="85" height="43" as="alternateBounds" />
          </mxGeometry>
        </mxCell>
        <mxCell id="yZxJTuz7baw03hSCPFo4-82" value="" style="shape=partialRectangle;html=1;whiteSpace=wrap;connectable=0;strokeColor=#001DBC;overflow=hidden;fillColor=#0050ef;top=0;left=0;bottom=0;right=0;pointerEvents=1;fontColor=#ffffff;" parent="yZxJTuz7baw03hSCPFo4-74" vertex="1">
          <mxGeometry x="629" width="82" height="43" as="geometry">
            <mxRectangle width="82" height="43" as="alternateBounds" />
          </mxGeometry>
        </mxCell>
        <mxCell id="yZxJTuz7baw03hSCPFo4-83" value="" style="shape=partialRectangle;html=1;whiteSpace=wrap;connectable=0;strokeColor=#001DBC;overflow=hidden;fillColor=#0050ef;top=0;left=0;bottom=0;right=0;pointerEvents=1;fontColor=#ffffff;" parent="yZxJTuz7baw03hSCPFo4-74" vertex="1">
          <mxGeometry x="711" width="89" height="43" as="geometry">
            <mxRectangle width="89" height="43" as="alternateBounds" />
          </mxGeometry>
        </mxCell>
        <mxCell id="yZxJTuz7baw03hSCPFo4-84" value="" style="shape=partialRectangle;html=1;whiteSpace=wrap;connectable=0;strokeColor=#001DBC;overflow=hidden;fillColor=#0050ef;top=0;left=0;bottom=0;right=0;pointerEvents=1;fontColor=#ffffff;" parent="yZxJTuz7baw03hSCPFo4-74" vertex="1">
          <mxGeometry x="800" width="85" height="43" as="geometry">
            <mxRectangle width="85" height="43" as="alternateBounds" />
          </mxGeometry>
        </mxCell>
        <mxCell id="yZxJTuz7baw03hSCPFo4-85" value="" style="shape=partialRectangle;html=1;whiteSpace=wrap;connectable=0;strokeColor=inherit;overflow=hidden;fillColor=none;top=0;left=0;bottom=0;right=0;pointerEvents=1;" parent="yZxJTuz7baw03hSCPFo4-74" vertex="1">
          <mxGeometry x="885" width="85" height="43" as="geometry">
            <mxRectangle width="85" height="43" as="alternateBounds" />
          </mxGeometry>
        </mxCell>
        <mxCell id="yZxJTuz7baw03hSCPFo4-86" value="" style="shape=partialRectangle;html=1;whiteSpace=wrap;connectable=0;strokeColor=inherit;overflow=hidden;fillColor=none;top=0;left=0;bottom=0;right=0;pointerEvents=1;" parent="yZxJTuz7baw03hSCPFo4-74" vertex="1">
          <mxGeometry x="970" width="86" height="43" as="geometry">
            <mxRectangle width="86" height="43" as="alternateBounds" />
          </mxGeometry>
        </mxCell>
        <mxCell id="yZxJTuz7baw03hSCPFo4-87" value="" style="shape=partialRectangle;html=1;whiteSpace=wrap;connectable=0;strokeColor=inherit;overflow=hidden;fillColor=none;top=0;left=0;bottom=0;right=0;pointerEvents=1;" parent="yZxJTuz7baw03hSCPFo4-74" vertex="1">
          <mxGeometry x="1056" width="85" height="43" as="geometry">
            <mxRectangle width="85" height="43" as="alternateBounds" />
          </mxGeometry>
        </mxCell>
        <mxCell id="yZxJTuz7baw03hSCPFo4-88" value="" style="shape=partialRectangle;html=1;whiteSpace=wrap;connectable=0;strokeColor=inherit;overflow=hidden;fillColor=none;top=0;left=0;bottom=0;right=0;pointerEvents=1;" parent="yZxJTuz7baw03hSCPFo4-74" vertex="1">
          <mxGeometry x="1141" width="85" height="43" as="geometry">
            <mxRectangle width="85" height="43" as="alternateBounds" />
          </mxGeometry>
        </mxCell>
        <mxCell id="yZxJTuz7baw03hSCPFo4-89" value="" style="shape=partialRectangle;html=1;whiteSpace=wrap;connectable=0;strokeColor=inherit;overflow=hidden;fillColor=none;top=0;left=0;bottom=0;right=0;pointerEvents=1;" parent="yZxJTuz7baw03hSCPFo4-74" vertex="1">
          <mxGeometry x="1226" width="99" height="43" as="geometry">
            <mxRectangle width="99" height="43" as="alternateBounds" />
          </mxGeometry>
        </mxCell>
        <mxCell id="yZxJTuz7baw03hSCPFo4-90" value="" style="shape=partialRectangle;html=1;whiteSpace=wrap;connectable=0;strokeColor=inherit;overflow=hidden;fillColor=none;top=0;left=0;bottom=0;right=0;pointerEvents=1;" parent="yZxJTuz7baw03hSCPFo4-74" vertex="1">
          <mxGeometry x="1325" width="80" height="43" as="geometry">
            <mxRectangle width="80" height="43" as="alternateBounds" />
          </mxGeometry>
        </mxCell>
        <mxCell id="yZxJTuz7baw03hSCPFo4-91" value="" style="shape=table;startSize=0;container=1;collapsible=0;childLayout=tableLayout;" parent="1" vertex="1">
          <mxGeometry x="-153" y="438" width="1405" height="43" as="geometry" />
        </mxCell>
        <mxCell id="yZxJTuz7baw03hSCPFo4-92" value="" style="shape=tableRow;horizontal=0;startSize=0;swimlaneHead=0;swimlaneBody=0;strokeColor=inherit;top=0;left=0;bottom=0;right=0;collapsible=0;dropTarget=0;fillColor=none;points=[[0,0.5],[1,0.5]];portConstraint=eastwest;" parent="yZxJTuz7baw03hSCPFo4-91" vertex="1">
          <mxGeometry width="1405" height="43" as="geometry" />
        </mxCell>
        <mxCell id="yZxJTuz7baw03hSCPFo4-93" value="&lt;font face=&quot;Times New Roman&quot; style=&quot;font-size: 18px;&quot;&gt;Implementation&lt;/font&gt;" style="shape=partialRectangle;html=1;whiteSpace=wrap;connectable=0;strokeColor=inherit;overflow=hidden;fillColor=none;top=0;left=0;bottom=0;right=0;pointerEvents=1;" parent="yZxJTuz7baw03hSCPFo4-92" vertex="1">
          <mxGeometry width="127" height="43" as="geometry">
            <mxRectangle width="127" height="43" as="alternateBounds" />
          </mxGeometry>
        </mxCell>
        <mxCell id="yZxJTuz7baw03hSCPFo4-94" value="" style="shape=partialRectangle;html=1;whiteSpace=wrap;connectable=0;strokeColor=inherit;overflow=hidden;fillColor=none;top=0;left=0;bottom=0;right=0;pointerEvents=1;" parent="yZxJTuz7baw03hSCPFo4-92" vertex="1">
          <mxGeometry x="127" width="76" height="43" as="geometry">
            <mxRectangle width="76" height="43" as="alternateBounds" />
          </mxGeometry>
        </mxCell>
        <mxCell id="yZxJTuz7baw03hSCPFo4-95" value="" style="shape=partialRectangle;html=1;whiteSpace=wrap;connectable=0;strokeColor=inherit;overflow=hidden;fillColor=none;top=0;left=0;bottom=0;right=0;pointerEvents=1;" parent="yZxJTuz7baw03hSCPFo4-92" vertex="1">
          <mxGeometry x="203" width="85" height="43" as="geometry">
            <mxRectangle width="85" height="43" as="alternateBounds" />
          </mxGeometry>
        </mxCell>
        <mxCell id="yZxJTuz7baw03hSCPFo4-96" value="" style="shape=partialRectangle;html=1;whiteSpace=wrap;connectable=0;strokeColor=inherit;overflow=hidden;fillColor=none;top=0;left=0;bottom=0;right=0;pointerEvents=1;" parent="yZxJTuz7baw03hSCPFo4-92" vertex="1">
          <mxGeometry x="288" width="85" height="43" as="geometry">
            <mxRectangle width="85" height="43" as="alternateBounds" />
          </mxGeometry>
        </mxCell>
        <mxCell id="yZxJTuz7baw03hSCPFo4-97" value="" style="shape=partialRectangle;html=1;whiteSpace=wrap;connectable=0;strokeColor=inherit;overflow=hidden;fillColor=none;top=0;left=0;bottom=0;right=0;pointerEvents=1;" parent="yZxJTuz7baw03hSCPFo4-92" vertex="1">
          <mxGeometry x="373" width="86" height="43" as="geometry">
            <mxRectangle width="86" height="43" as="alternateBounds" />
          </mxGeometry>
        </mxCell>
        <mxCell id="yZxJTuz7baw03hSCPFo4-98" value="" style="shape=partialRectangle;html=1;whiteSpace=wrap;connectable=0;strokeColor=inherit;overflow=hidden;fillColor=none;top=0;left=0;bottom=0;right=0;pointerEvents=1;" parent="yZxJTuz7baw03hSCPFo4-92" vertex="1">
          <mxGeometry x="459" width="85" height="43" as="geometry">
            <mxRectangle width="85" height="43" as="alternateBounds" />
          </mxGeometry>
        </mxCell>
        <mxCell id="yZxJTuz7baw03hSCPFo4-99" value="" style="shape=partialRectangle;html=1;whiteSpace=wrap;connectable=0;strokeColor=inherit;overflow=hidden;fillColor=none;top=0;left=0;bottom=0;right=0;pointerEvents=1;" parent="yZxJTuz7baw03hSCPFo4-92" vertex="1">
          <mxGeometry x="544" width="85" height="43" as="geometry">
            <mxRectangle width="85" height="43" as="alternateBounds" />
          </mxGeometry>
        </mxCell>
        <mxCell id="yZxJTuz7baw03hSCPFo4-100" value="" style="shape=partialRectangle;html=1;whiteSpace=wrap;connectable=0;overflow=hidden;top=0;left=0;bottom=0;right=0;pointerEvents=1;" parent="yZxJTuz7baw03hSCPFo4-92" vertex="1">
          <mxGeometry x="629" width="82" height="43" as="geometry">
            <mxRectangle width="82" height="43" as="alternateBounds" />
          </mxGeometry>
        </mxCell>
        <mxCell id="yZxJTuz7baw03hSCPFo4-101" value="" style="shape=partialRectangle;html=1;whiteSpace=wrap;connectable=0;overflow=hidden;top=0;left=0;bottom=0;right=0;pointerEvents=1;" parent="yZxJTuz7baw03hSCPFo4-92" vertex="1">
          <mxGeometry x="711" width="89" height="43" as="geometry">
            <mxRectangle width="89" height="43" as="alternateBounds" />
          </mxGeometry>
        </mxCell>
        <mxCell id="yZxJTuz7baw03hSCPFo4-102" value="" style="shape=partialRectangle;html=1;whiteSpace=wrap;connectable=0;strokeColor=#005700;overflow=hidden;fillColor=#008a00;top=0;left=0;bottom=0;right=0;pointerEvents=1;fontColor=#ffffff;" parent="yZxJTuz7baw03hSCPFo4-92" vertex="1">
          <mxGeometry x="800" width="85" height="43" as="geometry">
            <mxRectangle width="85" height="43" as="alternateBounds" />
          </mxGeometry>
        </mxCell>
        <mxCell id="yZxJTuz7baw03hSCPFo4-103" value="" style="shape=partialRectangle;html=1;whiteSpace=wrap;connectable=0;strokeColor=#005700;overflow=hidden;fillColor=#008a00;top=0;left=0;bottom=0;right=0;pointerEvents=1;fontColor=#ffffff;" parent="yZxJTuz7baw03hSCPFo4-92" vertex="1">
          <mxGeometry x="885" width="85" height="43" as="geometry">
            <mxRectangle width="85" height="43" as="alternateBounds" />
          </mxGeometry>
        </mxCell>
        <mxCell id="yZxJTuz7baw03hSCPFo4-104" value="" style="shape=partialRectangle;html=1;whiteSpace=wrap;connectable=0;strokeColor=#005700;overflow=hidden;fillColor=#008a00;top=0;left=0;bottom=0;right=0;pointerEvents=1;fontColor=#ffffff;" parent="yZxJTuz7baw03hSCPFo4-92" vertex="1">
          <mxGeometry x="970" width="86" height="43" as="geometry">
            <mxRectangle width="86" height="43" as="alternateBounds" />
          </mxGeometry>
        </mxCell>
        <mxCell id="yZxJTuz7baw03hSCPFo4-105" value="" style="shape=partialRectangle;html=1;whiteSpace=wrap;connectable=0;overflow=hidden;top=0;left=0;bottom=0;right=0;pointerEvents=1;fillColor=#008a00;fontColor=#ffffff;strokeColor=#005700;" parent="yZxJTuz7baw03hSCPFo4-92" vertex="1">
          <mxGeometry x="1056" width="85" height="43" as="geometry">
            <mxRectangle width="85" height="43" as="alternateBounds" />
          </mxGeometry>
        </mxCell>
        <mxCell id="yZxJTuz7baw03hSCPFo4-106" value="" style="shape=partialRectangle;html=1;whiteSpace=wrap;connectable=0;strokeColor=inherit;overflow=hidden;fillColor=none;top=0;left=0;bottom=0;right=0;pointerEvents=1;" parent="yZxJTuz7baw03hSCPFo4-92" vertex="1">
          <mxGeometry x="1141" width="85" height="43" as="geometry">
            <mxRectangle width="85" height="43" as="alternateBounds" />
          </mxGeometry>
        </mxCell>
        <mxCell id="yZxJTuz7baw03hSCPFo4-107" value="" style="shape=partialRectangle;html=1;whiteSpace=wrap;connectable=0;strokeColor=inherit;overflow=hidden;fillColor=none;top=0;left=0;bottom=0;right=0;pointerEvents=1;" parent="yZxJTuz7baw03hSCPFo4-92" vertex="1">
          <mxGeometry x="1226" width="99" height="43" as="geometry">
            <mxRectangle width="99" height="43" as="alternateBounds" />
          </mxGeometry>
        </mxCell>
        <mxCell id="yZxJTuz7baw03hSCPFo4-108" value="" style="shape=partialRectangle;html=1;whiteSpace=wrap;connectable=0;strokeColor=inherit;overflow=hidden;fillColor=none;top=0;left=0;bottom=0;right=0;pointerEvents=1;" parent="yZxJTuz7baw03hSCPFo4-92" vertex="1">
          <mxGeometry x="1325" width="80" height="43" as="geometry">
            <mxRectangle width="80" height="43" as="alternateBounds" />
          </mxGeometry>
        </mxCell>
        <mxCell id="yZxJTuz7baw03hSCPFo4-109" value="" style="shape=table;startSize=0;container=1;collapsible=0;childLayout=tableLayout;fillColor=none;" parent="1" vertex="1">
          <mxGeometry x="-155" y="517" width="1405" height="43" as="geometry" />
        </mxCell>
        <mxCell id="yZxJTuz7baw03hSCPFo4-110" value="" style="shape=tableRow;horizontal=0;startSize=0;swimlaneHead=0;swimlaneBody=0;strokeColor=inherit;top=0;left=0;bottom=0;right=0;collapsible=0;dropTarget=0;fillColor=none;points=[[0,0.5],[1,0.5]];portConstraint=eastwest;" parent="yZxJTuz7baw03hSCPFo4-109" vertex="1">
          <mxGeometry width="1405" height="43" as="geometry" />
        </mxCell>
        <mxCell id="yZxJTuz7baw03hSCPFo4-111" value="&lt;font face=&quot;Times New Roman&quot; style=&quot;font-size: 18px;&quot;&gt;Testing&lt;/font&gt;" style="shape=partialRectangle;html=1;whiteSpace=wrap;connectable=0;strokeColor=inherit;overflow=hidden;fillColor=none;top=0;left=0;bottom=0;right=0;pointerEvents=1;" parent="yZxJTuz7baw03hSCPFo4-110" vertex="1">
          <mxGeometry width="127" height="43" as="geometry">
            <mxRectangle width="127" height="43" as="alternateBounds" />
          </mxGeometry>
        </mxCell>
        <mxCell id="yZxJTuz7baw03hSCPFo4-112" value="" style="shape=partialRectangle;html=1;whiteSpace=wrap;connectable=0;strokeColor=inherit;overflow=hidden;fillColor=none;top=0;left=0;bottom=0;right=0;pointerEvents=1;" parent="yZxJTuz7baw03hSCPFo4-110" vertex="1">
          <mxGeometry x="127" width="76" height="43" as="geometry">
            <mxRectangle width="76" height="43" as="alternateBounds" />
          </mxGeometry>
        </mxCell>
        <mxCell id="yZxJTuz7baw03hSCPFo4-113" value="" style="shape=partialRectangle;html=1;whiteSpace=wrap;connectable=0;strokeColor=inherit;overflow=hidden;fillColor=none;top=0;left=0;bottom=0;right=0;pointerEvents=1;" parent="yZxJTuz7baw03hSCPFo4-110" vertex="1">
          <mxGeometry x="203" width="85" height="43" as="geometry">
            <mxRectangle width="85" height="43" as="alternateBounds" />
          </mxGeometry>
        </mxCell>
        <mxCell id="yZxJTuz7baw03hSCPFo4-114" value="" style="shape=partialRectangle;html=1;whiteSpace=wrap;connectable=0;strokeColor=inherit;overflow=hidden;fillColor=none;top=0;left=0;bottom=0;right=0;pointerEvents=1;" parent="yZxJTuz7baw03hSCPFo4-110" vertex="1">
          <mxGeometry x="288" width="85" height="43" as="geometry">
            <mxRectangle width="85" height="43" as="alternateBounds" />
          </mxGeometry>
        </mxCell>
        <mxCell id="yZxJTuz7baw03hSCPFo4-115" value="" style="shape=partialRectangle;html=1;whiteSpace=wrap;connectable=0;strokeColor=inherit;overflow=hidden;fillColor=none;top=0;left=0;bottom=0;right=0;pointerEvents=1;" parent="yZxJTuz7baw03hSCPFo4-110" vertex="1">
          <mxGeometry x="373" width="86" height="43" as="geometry">
            <mxRectangle width="86" height="43" as="alternateBounds" />
          </mxGeometry>
        </mxCell>
        <mxCell id="yZxJTuz7baw03hSCPFo4-116" value="" style="shape=partialRectangle;html=1;whiteSpace=wrap;connectable=0;strokeColor=inherit;overflow=hidden;fillColor=none;top=0;left=0;bottom=0;right=0;pointerEvents=1;" parent="yZxJTuz7baw03hSCPFo4-110" vertex="1">
          <mxGeometry x="459" width="85" height="43" as="geometry">
            <mxRectangle width="85" height="43" as="alternateBounds" />
          </mxGeometry>
        </mxCell>
        <mxCell id="yZxJTuz7baw03hSCPFo4-117" value="" style="shape=partialRectangle;html=1;whiteSpace=wrap;connectable=0;strokeColor=inherit;overflow=hidden;fillColor=none;top=0;left=0;bottom=0;right=0;pointerEvents=1;" parent="yZxJTuz7baw03hSCPFo4-110" vertex="1">
          <mxGeometry x="544" width="85" height="43" as="geometry">
            <mxRectangle width="85" height="43" as="alternateBounds" />
          </mxGeometry>
        </mxCell>
        <mxCell id="yZxJTuz7baw03hSCPFo4-118" value="" style="shape=partialRectangle;html=1;whiteSpace=wrap;connectable=0;strokeColor=inherit;overflow=hidden;fillColor=none;top=0;left=0;bottom=0;right=0;pointerEvents=1;" parent="yZxJTuz7baw03hSCPFo4-110" vertex="1">
          <mxGeometry x="629" width="82" height="43" as="geometry">
            <mxRectangle width="82" height="43" as="alternateBounds" />
          </mxGeometry>
        </mxCell>
        <mxCell id="yZxJTuz7baw03hSCPFo4-119" value="" style="shape=partialRectangle;html=1;whiteSpace=wrap;connectable=0;strokeColor=inherit;overflow=hidden;fillColor=none;top=0;left=0;bottom=0;right=0;pointerEvents=1;" parent="yZxJTuz7baw03hSCPFo4-110" vertex="1">
          <mxGeometry x="711" width="89" height="43" as="geometry">
            <mxRectangle width="89" height="43" as="alternateBounds" />
          </mxGeometry>
        </mxCell>
        <mxCell id="yZxJTuz7baw03hSCPFo4-120" value="" style="shape=partialRectangle;html=1;whiteSpace=wrap;connectable=0;strokeColor=inherit;overflow=hidden;fillColor=none;top=0;left=0;bottom=0;right=0;pointerEvents=1;" parent="yZxJTuz7baw03hSCPFo4-110" vertex="1">
          <mxGeometry x="800" width="85" height="43" as="geometry">
            <mxRectangle width="85" height="43" as="alternateBounds" />
          </mxGeometry>
        </mxCell>
        <mxCell id="yZxJTuz7baw03hSCPFo4-121" value="" style="shape=partialRectangle;html=1;whiteSpace=wrap;connectable=0;strokeColor=#B09500;overflow=hidden;fillColor=#e3c800;top=0;left=0;bottom=0;right=0;pointerEvents=1;fontColor=#000000;" parent="yZxJTuz7baw03hSCPFo4-110" vertex="1">
          <mxGeometry x="885" width="85" height="43" as="geometry">
            <mxRectangle width="85" height="43" as="alternateBounds" />
          </mxGeometry>
        </mxCell>
        <mxCell id="yZxJTuz7baw03hSCPFo4-122" value="" style="shape=partialRectangle;html=1;whiteSpace=wrap;connectable=0;overflow=hidden;top=0;left=0;bottom=0;right=0;pointerEvents=1;fillColor=#e3c800;strokeColor=#B09500;fontColor=#000000;" parent="yZxJTuz7baw03hSCPFo4-110" vertex="1">
          <mxGeometry x="970" width="86" height="43" as="geometry">
            <mxRectangle width="86" height="43" as="alternateBounds" />
          </mxGeometry>
        </mxCell>
        <mxCell id="yZxJTuz7baw03hSCPFo4-123" value="" style="shape=partialRectangle;html=1;whiteSpace=wrap;connectable=0;strokeColor=#B09500;overflow=hidden;fillColor=#e3c800;top=0;left=0;bottom=0;right=0;pointerEvents=1;fontColor=#000000;" parent="yZxJTuz7baw03hSCPFo4-110" vertex="1">
          <mxGeometry x="1056" width="85" height="43" as="geometry">
            <mxRectangle width="85" height="43" as="alternateBounds" />
          </mxGeometry>
        </mxCell>
        <mxCell id="yZxJTuz7baw03hSCPFo4-124" value="" style="shape=partialRectangle;html=1;whiteSpace=wrap;connectable=0;strokeColor=#B09500;overflow=hidden;fillColor=#e3c800;top=0;left=0;bottom=0;right=0;pointerEvents=1;fontColor=#000000;" parent="yZxJTuz7baw03hSCPFo4-110" vertex="1">
          <mxGeometry x="1141" width="85" height="43" as="geometry">
            <mxRectangle width="85" height="43" as="alternateBounds" />
          </mxGeometry>
        </mxCell>
        <mxCell id="yZxJTuz7baw03hSCPFo4-125" value="" style="shape=partialRectangle;html=1;whiteSpace=wrap;connectable=0;overflow=hidden;fillColor=none;top=0;left=0;bottom=0;right=0;pointerEvents=1;" parent="yZxJTuz7baw03hSCPFo4-110" vertex="1">
          <mxGeometry x="1226" width="99" height="43" as="geometry">
            <mxRectangle width="99" height="43" as="alternateBounds" />
          </mxGeometry>
        </mxCell>
        <mxCell id="yZxJTuz7baw03hSCPFo4-126" value="" style="shape=partialRectangle;html=1;whiteSpace=wrap;connectable=0;strokeColor=inherit;overflow=hidden;fillColor=none;top=0;left=0;bottom=0;right=0;pointerEvents=1;" parent="yZxJTuz7baw03hSCPFo4-110" vertex="1">
          <mxGeometry x="1325" width="80" height="43" as="geometry">
            <mxRectangle width="80" height="43" as="alternateBounds" />
          </mxGeometry>
        </mxCell>
        <mxCell id="yZxJTuz7baw03hSCPFo4-127" value="" style="shape=table;startSize=0;container=1;collapsible=0;childLayout=tableLayout;fillColor=#0050ef;fontColor=#ffffff;strokeColor=#001DBC;" parent="1" vertex="1">
          <mxGeometry x="-148" y="597" width="1405" height="43" as="geometry" />
        </mxCell>
        <mxCell id="yZxJTuz7baw03hSCPFo4-128" value="" style="shape=tableRow;horizontal=0;startSize=0;swimlaneHead=0;swimlaneBody=0;strokeColor=inherit;top=0;left=0;bottom=0;right=0;collapsible=0;dropTarget=0;fillColor=none;points=[[0,0.5],[1,0.5]];portConstraint=eastwest;" parent="yZxJTuz7baw03hSCPFo4-127" vertex="1">
          <mxGeometry width="1405" height="43" as="geometry" />
        </mxCell>
        <mxCell id="yZxJTuz7baw03hSCPFo4-129" value="&lt;font face=&quot;Times New Roman&quot; style=&quot;font-size: 18px;&quot;&gt;Documentation&lt;/font&gt;" style="shape=partialRectangle;html=1;whiteSpace=wrap;connectable=0;overflow=hidden;top=0;left=0;bottom=0;right=0;pointerEvents=1;" parent="yZxJTuz7baw03hSCPFo4-128" vertex="1">
          <mxGeometry width="127" height="43" as="geometry">
            <mxRectangle width="127" height="43" as="alternateBounds" />
          </mxGeometry>
        </mxCell>
        <mxCell id="yZxJTuz7baw03hSCPFo4-130" value="" style="shape=partialRectangle;html=1;whiteSpace=wrap;connectable=0;strokeColor=#3700CC;overflow=hidden;fillColor=#6a00ff;top=0;left=0;bottom=0;right=0;pointerEvents=1;fontColor=#ffffff;" parent="yZxJTuz7baw03hSCPFo4-128" vertex="1">
          <mxGeometry x="127" width="76" height="43" as="geometry">
            <mxRectangle width="76" height="43" as="alternateBounds" />
          </mxGeometry>
        </mxCell>
        <mxCell id="yZxJTuz7baw03hSCPFo4-131" value="" style="shape=partialRectangle;html=1;whiteSpace=wrap;connectable=0;strokeColor=#3700CC;overflow=hidden;fillColor=#6a00ff;top=0;left=0;bottom=0;right=0;pointerEvents=1;fontColor=#ffffff;" parent="yZxJTuz7baw03hSCPFo4-128" vertex="1">
          <mxGeometry x="203" width="85" height="43" as="geometry">
            <mxRectangle width="85" height="43" as="alternateBounds" />
          </mxGeometry>
        </mxCell>
        <mxCell id="yZxJTuz7baw03hSCPFo4-132" value="" style="shape=partialRectangle;html=1;whiteSpace=wrap;connectable=0;strokeColor=#3700CC;overflow=hidden;fillColor=#6a00ff;top=0;left=0;bottom=0;right=0;pointerEvents=1;fontColor=#ffffff;" parent="yZxJTuz7baw03hSCPFo4-128" vertex="1">
          <mxGeometry x="288" width="85" height="43" as="geometry">
            <mxRectangle width="85" height="43" as="alternateBounds" />
          </mxGeometry>
        </mxCell>
        <mxCell id="yZxJTuz7baw03hSCPFo4-133" value="" style="shape=partialRectangle;html=1;whiteSpace=wrap;connectable=0;strokeColor=#3700CC;overflow=hidden;fillColor=#6a00ff;top=0;left=0;bottom=0;right=0;pointerEvents=1;fontColor=#ffffff;" parent="yZxJTuz7baw03hSCPFo4-128" vertex="1">
          <mxGeometry x="373" width="86" height="43" as="geometry">
            <mxRectangle width="86" height="43" as="alternateBounds" />
          </mxGeometry>
        </mxCell>
        <mxCell id="yZxJTuz7baw03hSCPFo4-134" value="" style="shape=partialRectangle;html=1;whiteSpace=wrap;connectable=0;strokeColor=#3700CC;overflow=hidden;fillColor=#6a00ff;top=0;left=0;bottom=0;right=0;pointerEvents=1;fontColor=#ffffff;" parent="yZxJTuz7baw03hSCPFo4-128" vertex="1">
          <mxGeometry x="459" width="85" height="43" as="geometry">
            <mxRectangle width="85" height="43" as="alternateBounds" />
          </mxGeometry>
        </mxCell>
        <mxCell id="yZxJTuz7baw03hSCPFo4-135" value="" style="shape=partialRectangle;html=1;whiteSpace=wrap;connectable=0;strokeColor=#3700CC;overflow=hidden;fillColor=#6a00ff;top=0;left=0;bottom=0;right=0;pointerEvents=1;fontColor=#ffffff;" parent="yZxJTuz7baw03hSCPFo4-128" vertex="1">
          <mxGeometry x="544" width="85" height="43" as="geometry">
            <mxRectangle width="85" height="43" as="alternateBounds" />
          </mxGeometry>
        </mxCell>
        <mxCell id="yZxJTuz7baw03hSCPFo4-136" value="" style="shape=partialRectangle;html=1;whiteSpace=wrap;connectable=0;strokeColor=#3700CC;overflow=hidden;fillColor=#6a00ff;top=0;left=0;bottom=0;right=0;pointerEvents=1;fontColor=#ffffff;" parent="yZxJTuz7baw03hSCPFo4-128" vertex="1">
          <mxGeometry x="629" width="82" height="43" as="geometry">
            <mxRectangle width="82" height="43" as="alternateBounds" />
          </mxGeometry>
        </mxCell>
        <mxCell id="yZxJTuz7baw03hSCPFo4-137" value="" style="shape=partialRectangle;html=1;whiteSpace=wrap;connectable=0;strokeColor=#3700CC;overflow=hidden;fillColor=#6a00ff;top=0;left=0;bottom=0;right=0;pointerEvents=1;fontColor=#ffffff;" parent="yZxJTuz7baw03hSCPFo4-128" vertex="1">
          <mxGeometry x="711" width="89" height="43" as="geometry">
            <mxRectangle width="89" height="43" as="alternateBounds" />
          </mxGeometry>
        </mxCell>
        <mxCell id="yZxJTuz7baw03hSCPFo4-138" value="" style="shape=partialRectangle;html=1;whiteSpace=wrap;connectable=0;strokeColor=#3700CC;overflow=hidden;fillColor=#6a00ff;top=0;left=0;bottom=0;right=0;pointerEvents=1;fontColor=#ffffff;" parent="yZxJTuz7baw03hSCPFo4-128" vertex="1">
          <mxGeometry x="800" width="85" height="43" as="geometry">
            <mxRectangle width="85" height="43" as="alternateBounds" />
          </mxGeometry>
        </mxCell>
        <mxCell id="yZxJTuz7baw03hSCPFo4-139" value="" style="shape=partialRectangle;html=1;whiteSpace=wrap;connectable=0;strokeColor=#3700CC;overflow=hidden;fillColor=#6a00ff;top=0;left=0;bottom=0;right=0;pointerEvents=1;fontColor=#ffffff;" parent="yZxJTuz7baw03hSCPFo4-128" vertex="1">
          <mxGeometry x="885" width="85" height="43" as="geometry">
            <mxRectangle width="85" height="43" as="alternateBounds" />
          </mxGeometry>
        </mxCell>
        <mxCell id="yZxJTuz7baw03hSCPFo4-140" value="" style="shape=partialRectangle;html=1;whiteSpace=wrap;connectable=0;strokeColor=#3700CC;overflow=hidden;fillColor=#6a00ff;top=0;left=0;bottom=0;right=0;pointerEvents=1;fontColor=#ffffff;" parent="yZxJTuz7baw03hSCPFo4-128" vertex="1">
          <mxGeometry x="970" width="86" height="43" as="geometry">
            <mxRectangle width="86" height="43" as="alternateBounds" />
          </mxGeometry>
        </mxCell>
        <mxCell id="yZxJTuz7baw03hSCPFo4-141" value="" style="shape=partialRectangle;html=1;whiteSpace=wrap;connectable=0;strokeColor=#3700CC;overflow=hidden;fillColor=#6a00ff;top=0;left=0;bottom=0;right=0;pointerEvents=1;fontColor=#ffffff;" parent="yZxJTuz7baw03hSCPFo4-128" vertex="1">
          <mxGeometry x="1056" width="85" height="43" as="geometry">
            <mxRectangle width="85" height="43" as="alternateBounds" />
          </mxGeometry>
        </mxCell>
        <mxCell id="yZxJTuz7baw03hSCPFo4-142" value="" style="shape=partialRectangle;html=1;whiteSpace=wrap;connectable=0;strokeColor=#3700CC;overflow=hidden;fillColor=#6a00ff;top=0;left=0;bottom=0;right=0;pointerEvents=1;fontColor=#ffffff;" parent="yZxJTuz7baw03hSCPFo4-128" vertex="1">
          <mxGeometry x="1141" width="85" height="43" as="geometry">
            <mxRectangle width="85" height="43" as="alternateBounds" />
          </mxGeometry>
        </mxCell>
        <mxCell id="yZxJTuz7baw03hSCPFo4-143" value="" style="shape=partialRectangle;html=1;whiteSpace=wrap;connectable=0;strokeColor=#3700CC;overflow=hidden;fillColor=#6a00ff;top=0;left=0;bottom=0;right=0;pointerEvents=1;fontColor=#ffffff;" parent="yZxJTuz7baw03hSCPFo4-128" vertex="1">
          <mxGeometry x="1226" width="99" height="43" as="geometry">
            <mxRectangle width="99" height="43" as="alternateBounds" />
          </mxGeometry>
        </mxCell>
        <mxCell id="yZxJTuz7baw03hSCPFo4-144" value="" style="shape=partialRectangle;html=1;whiteSpace=wrap;connectable=0;strokeColor=#3700CC;overflow=hidden;fillColor=#6a00ff;top=0;left=0;bottom=0;right=0;pointerEvents=1;fontColor=#ffffff;" parent="yZxJTuz7baw03hSCPFo4-128" vertex="1">
          <mxGeometry x="1325" width="80" height="43" as="geometry">
            <mxRectangle width="80" height="43" as="alternateBounds" />
          </mxGeometry>
        </mxCell>
      </root>
    </mxGraphModel>
  </diagram>
</mxfile>
